<svg style="height:1em;width:0.8475em" viewBox="0 0 150 177" fill="none" xmlns="http://www.w3.org/2000/svg">
<path d="M89.1766 8.07819C89.1051 7.96578 88.9974 7.78971 88.8284 7.50751C87.7806 5.41661 83.9156 0.0101463 76.3467 0.324567C71.1595 0.148491 67.5201 3.18029 66.0313 5.41661C64.3248 7.84001 63.9836 8.07976 63.8972 8.01687C28.8864 14.3477 1.22523 59.0065 0.883301 92.9089C0.961906 127.782 26.3451 163.127 62.4335 168.446C63.2927 170.231 66.5831 177.293 75.2643 176.947C75.4207 176.947 75.5787 176.947 75.7391 176.943C81.0095 176.975 84.6796 174.551 86.3814 172.419C88.2522 170.198 88.3135 170.016 88.9038 169.926C122.935 163.034 149.527 126.625 149.723 92.9089C149.494 58.4264 125.866 13.5153 89.1766 8.07819ZM87.4001 162.212C83.1594 163.065 81.4277 166.253 80.4892 167.217C79.3753 168.274 79.2126 168.851 75.563 169.084C75.4616 169.086 75.3641 169.088 75.2643 169.088C71.716 168.899 71.6256 168.221 70.5818 166.909C69.4546 165.896 69.7061 162.269 64.3429 160.781C32.5581 156.873 8.66679 124.397 8.74382 92.9089C8.40268 62.9438 36.019 20.071 65.1808 15.7713C69.7478 14.8893 71.2586 11.3662 72.3001 10.1597C73.5585 8.76755 73.5177 8.36038 76.3459 8.18588C79.9326 8.35095 80.1519 9.04582 81.2178 10.2359C82.2609 11.1572 82.716 14.6818 87.6713 15.7956C118.306 19.0452 142.094 61.3882 141.863 92.9082C142.06 122.586 116.824 156.729 87.4001 162.212Z" fill="#FFB524" class="fill-path"/>
<path d="M126.337 119.896C125.955 119.688 125.477 119.831 125.271 120.21C117.064 135.346 102.846 146.996 85.5551 151.895C85.1369 152.013 84.8948 152.447 85.0127 152.864C85.1299 153.282 85.5669 153.525 85.9835 153.406C103.688 148.389 118.245 136.467 126.654 120.962C126.86 120.579 126.717 120.102 126.337 119.896Z" fill="#FFB524" class="fill-path"/>
<path d="M133.293 97.4407C132.863 97.3849 132.469 97.6899 132.415 98.1198C131.878 102.301 130.93 106.368 129.609 110.278C129.469 110.688 129.691 111.134 130.102 111.274C130.511 111.413 130.957 111.193 131.098 110.781C132.454 106.775 133.424 102.607 133.974 98.3187C134.029 97.8895 133.726 97.4957 133.293 97.4407Z" fill="#FFB524" class="fill-path"/>
</svg>
