<svg style="height:1em;width:1.0197em" viewBox="0 0 155 152" fill="none" xmlns="http://www.w3.org/2000/svg">
<path d="M102.716 1.18969C102.478 1.18969 102.241 1.19205 102.001 1.19677C87.9003 1.87041 83.0237 10.3975 77.3853 9.66412C75.1631 9.71364 73.2758 8.33176 69.8612 5.81561C66.5795 3.40557 61.7845 0.432724 54.8461 0.465738H54.7667C20.3038 0.982174 0.327046 40.3249 0.231934 74.0819C0.983399 117.812 51.3662 151.425 79.1516 151.939C106.08 151.414 153.836 117.643 154.535 74.0819C154.409 41.4356 136.174 1.8036 102.716 1.18969ZM77.3845 17.5239C78.0873 17.4791 78.7562 17.4083 79.4 17.3148C84.9023 19.0095 91.8487 26.8008 97.1254 36.7554C103.295 48.0903 107.634 61.9554 107.607 70.8984C107.524 93.5068 97.1278 110.633 79.8598 110.673C62.7459 110.635 47.1655 95.4436 47.1522 73.8972C47.1522 73.6189 47.1545 73.3383 47.1592 73.0577C47.3833 60.6726 50.9048 46.3743 56.4622 35.3602C61.4072 25.474 67.948 18.5449 74.5744 17.2189C75.4508 17.402 76.3831 17.5144 77.3845 17.5239ZM121.321 123.295C107.119 136.263 89.562 144.199 79.1524 144.079C68.1728 144.191 49.7241 136.215 34.7687 123.231C19.682 110.268 8.039 92.6107 8.09324 74.0819C8.07595 58.5974 12.8544 41.7932 21.1731 29.1952C29.5454 16.5444 41.0225 8.32547 54.7674 8.32705H54.8154H54.8311C59.6308 8.38364 62.1768 10.0084 65.2652 12.1921C66.4796 13.0441 67.7923 14.0857 69.3047 15.0234C53.7244 22.6269 43.883 50.5718 43.2321 72.9822C43.2251 73.288 43.2227 73.593 43.2227 73.8964C43.2589 97.364 60.3437 114.59 79.8606 114.601C100.306 114.519 111.507 94.4068 111.538 70.8976C111.138 53.9982 99.1684 24.8813 84.9015 15.8079C91.1082 13.2611 94.739 8.87885 102.144 9.05493C102.335 9.05257 102.526 9.05021 102.717 9.05021C115.762 9.04078 126.565 17.2307 134.446 29.8437C142.269 42.389 146.693 59.0573 146.675 74.0803C146.719 92.7027 135.647 110.351 121.321 123.295Z" fill="#FFB524" class="fill-path"/>
<path d="M98.8556 78.101C98.8713 78.5357 99.2353 78.8745 99.6676 78.8588C100.102 78.8454 100.441 78.4815 100.425 78.0468C100.306 74.6251 99.3917 71.3803 97.855 68.5088C97.6482 68.1268 97.1734 67.9814 96.7906 68.1873C96.4063 68.3909 96.2632 68.8681 96.4676 69.2517C97.8958 71.9187 98.7416 74.9262 98.8556 78.101Z" fill="#FFB524" class="fill-path"/>
<path d="M77.086 100.798C77.5159 100.823 77.9459 100.834 78.3711 100.834C88.8846 100.834 97.8503 93.4495 99.9687 83.3778C100.057 82.9526 99.7856 82.5359 99.3603 82.4456C98.9374 82.3575 98.5185 82.6279 98.4296 83.054C96.4684 92.3946 88.1355 99.2623 78.3711 99.2623C77.9758 99.2623 77.5765 99.2513 77.1764 99.2285C76.7417 99.2042 76.3714 99.5343 76.3455 99.9682C76.3211 100.401 76.6544 100.772 77.086 100.798Z" fill="#FFB524" class="fill-path"/>
</svg>
