<svg style="height:1em;width:2.8333em" viewBox="0 0 221 78" fill="none" xmlns="http://www.w3.org/2000/svg">
<path d="M219.424 18.2824C218.422 17.3046 217.218 17.1151 216.582 17.1253C213.905 17.4634 214.109 18.0128 213.038 18.5497C208.666 22.0052 174.493 31.7664 143.394 35.9599C136.519 36.9197 130.014 37.3473 123.899 37.3473C102.504 37.352 85.8599 32.1036 75.1861 26.2294C63.8591 20.0542 55.751 16.5311 48.322 16.4611C46.0613 16.4588 43.8714 16.8298 41.8371 17.6103C39.3217 18.6747 37.0186 20.3144 34.9984 22.329C34.3507 21.756 33.6519 21.1366 32.9169 20.3717C23.9811 12.6323 6.97721 1.44518 6.90489 1.38858L6.93398 1.40824L6.9269 1.40431C5.12606 0.190641 2.68458 0.66856 1.47406 2.46941C0.26118 4.27104 0.738314 6.71173 2.53916 7.92461L2.54623 7.92932L2.5761 7.9474C2.59182 7.95919 10.0955 12.9097 17.5881 18.3752C21.329 21.1043 25.0674 23.964 27.7644 26.3064C28.7736 27.1813 29.6383 27.9909 30.2734 28.6481C28.1409 32.532 26.8573 36.9331 26.7346 41.2532C26.7346 41.5205 26.7393 41.7901 26.7504 42.0558C27.3273 48.6924 32.8352 54.7623 42.9619 60.9674C53.1924 67.0412 68.5164 72.6819 89.9026 75.8725C95.5118 76.7097 101.006 77.0878 106.361 77.0878C142.549 77.0658 172.127 59.9062 188.585 50.1985C196.91 45.2692 204.599 39.079 210.288 33.8879C213.133 31.2892 215.467 28.9476 217.151 27.0964C217.995 26.1657 218.672 25.3679 219.211 24.6479C219.699 23.6567 220.263 23.9404 220.629 21.1696C220.647 20.514 220.425 19.2642 219.424 18.2824ZM184.583 43.4298C168.297 53.0849 140.02 69.2493 106.36 69.2257C101.377 69.2257 96.2727 68.8759 91.0612 68.0985C70.48 65.0352 56.0725 59.6225 46.9778 54.2089C37.7818 48.9274 34.3711 43.0761 34.6046 41.7201C34.5975 41.5669 34.5959 41.4096 34.5959 41.2516C34.467 38.4879 35.6728 35.078 37.4375 32.0784C38.1678 31.5376 38.6968 30.7516 38.9153 29.8405C40.7232 27.3928 42.822 25.5015 44.6456 24.9513C45.7272 24.5402 46.8969 24.3201 48.3228 24.3177C52.966 24.247 60.461 27.0493 71.3997 33.1152C83.3367 39.6733 101.211 45.1992 123.901 45.2039C130.382 45.2039 137.252 44.7512 144.482 43.7419C165.447 40.7101 186.49 36.0346 200.945 31.617C196.153 35.695 190.41 40.0584 184.583 43.4298Z" fill="#FFB524" class="fill-path"/>
<path d="M53.4876 48.6869C49.5683 46.4081 45.8275 43.822 42.3091 40.9498C41.9719 40.6754 41.4767 40.7257 41.2024 41.063C40.9288 41.4002 40.9783 41.8938 41.3156 42.1697C44.9 45.0931 48.7084 47.7248 52.6976 50.0444C53.071 50.2637 53.5528 50.1371 53.7729 49.7622C53.9899 49.3865 53.8633 48.9038 53.4876 48.6869Z" fill="#FFB524" class="fill-path"/>
<path d="M107.799 59.9848C104.4 60.3786 101.008 60.5735 97.641 60.5735C85.4415 60.5735 73.5391 58.0385 62.6499 53.3167C62.2522 53.1446 61.7876 53.3285 61.6163 53.7263C61.4418 54.124 61.6257 54.5862 62.0234 54.7599V54.7576C73.1076 59.5658 85.223 62.1433 97.641 62.1433C101.069 62.1433 104.521 61.946 107.98 61.5451C108.41 61.4956 108.72 61.1065 108.67 60.6742C108.621 60.245 108.229 59.9353 107.799 59.9848Z" fill="#FFB524" class="fill-path"/>
</svg>
