<svg style="height:1em;width:0.1317em" viewBox="0 0 189 167" fill="none" xmlns="http://www.w3.org/2000/svg">
<path d="M167.726 15.862C166.799 14.7151 165.135 13.4543 162.999 13.459C158.22 14.0588 157.303 16.9507 155.258 19.6162C154.283 21.1419 153.224 22.9341 152.037 24.9102C136.99 9.85733 116.154 0.530823 93.1671 0.530823C69.5438 0.530823 48.1947 10.3816 33.0647 26.1734C29.893 22.7549 26.1962 20.5138 21.8894 20.1232C18.0173 20.0642 14.517 22.6503 12.5228 26.3259C4.7024 40.004 0.23291 55.8555 0.23291 72.7187C0.236054 118.516 33.1292 156.627 76.6167 164.849C76.9036 164.907 77.1921 164.959 77.4798 165.013C77.549 165.026 77.6182 165.037 77.6873 165.05C82.7063 165.994 87.8801 166.499 93.1671 166.497C93.3101 166.497 93.4508 166.49 93.5939 166.489C93.8014 166.49 94.0066 166.497 94.2157 166.497C146.112 166.497 188.191 124.521 188.195 72.7187C188.247 49.9774 181.387 32.0185 167.726 15.862ZM147.497 31.4981C147.582 31.587 147.681 31.6538 147.773 31.7332C142.401 39.8625 134.782 49.3541 122.842 56.8515C114.104 62.335 102.176 71.1136 91.9448 78.912C91.9786 78.3107 92.0014 77.7062 92.0014 77.0931C91.9613 66.3871 87.2159 53.4463 85.6949 39.7627C85.5872 38.8029 85.5369 37.8707 85.5369 36.9628C85.2484 21.8548 100.673 12.7154 108.879 10.0303C123.891 13.2083 137.241 20.8456 147.497 31.4981ZM93.1671 8.39213C96.0039 8.39213 98.8031 8.55406 101.557 8.85826C92.4628 13.4292 81.8385 22.4963 81.6066 36.9628C81.6066 38.02 81.6648 39.0993 81.7921 40.2037C83.4208 54.4257 88.1143 67.5323 88.0727 77.0931C88.0711 78.9985 87.8872 80.7364 87.4957 82.3235C81.4085 87.0146 76.296 91.0549 73.3916 93.3644C71.8163 91.3568 70.1908 89.3956 68.5188 87.5059C52.1336 69.1186 49.226 65.3581 44.2487 47.9769C42.5186 42.4832 40.3797 37.1569 37.7575 32.6528C51.5307 17.7344 71.2354 8.39449 93.1671 8.39213ZM8.09343 72.7187C8.09658 57.2468 12.1848 42.7607 19.3466 30.2263C20.7096 28.0261 21.3227 28.0403 21.8886 27.9813C22.8531 27.7801 26.1443 29.6399 29.1046 33.8626C32.1073 37.9673 34.9387 43.8643 36.6782 50.0985C41.6586 68.2241 46.3946 74.7546 62.6682 92.756C77.3313 108.85 88.6245 132.97 88.4004 143.221C88.4004 143.978 88.3438 144.635 88.2487 145.167C87.2693 150.711 86.5847 153.956 86.1563 155.762C85.7357 157.561 85.6343 157.611 85.6776 157.631L85.6697 157.647L85.6681 157.654C85.5974 157.831 85.5589 158.011 85.5164 158.19C82.7086 157.906 79.9402 157.483 77.2181 156.936C74.7797 156.412 69.345 154.875 69.0015 154.859C33.7612 144.075 8.16418 111.41 8.09343 72.7187ZM106.135 157.526C102.07 158.229 97.8912 158.605 93.6245 158.63C93.5986 158.63 93.5742 158.63 93.5475 158.63C94.0129 156.815 94.78 153.345 95.9913 146.537C96.1784 145.465 96.2602 144.36 96.2602 143.222C96.0849 131.99 88.7636 115.015 78.0717 99.685C85.9566 93.41 111.952 72.9427 127.014 63.5117C140.932 54.7928 149.526 43.553 155.231 34.6919C158.08 30.2656 160.231 26.4053 161.867 23.8679C162.234 23.2917 162.578 22.7902 162.882 22.3729C174.679 36.995 180.281 52.1752 180.332 72.7195C180.264 110.521 155.829 142.573 121.841 154.084C120.439 154.558 109.23 156.991 106.135 157.526Z" fill="#FFB524" class="fill-path"/>
<path d="M156.927 112.064C156.559 111.833 156.075 111.943 155.844 112.311C144.889 129.757 126.995 142.603 105.915 147.17C105.49 147.261 105.221 147.679 105.313 148.105C105.403 148.528 105.822 148.798 106.248 148.707C127.746 144.048 145.995 130.953 157.174 113.149C157.406 112.778 157.295 112.294 156.927 112.064Z" fill="#FFB524" class="fill-path"/>
<path d="M166.959 85.8662C166.533 85.7829 166.122 86.0627 166.041 86.4888C165.087 91.437 163.652 96.2185 161.777 100.783C161.613 101.183 161.805 101.643 162.205 101.808C162.608 101.973 163.067 101.781 163.233 101.381C165.145 96.7185 166.611 91.8379 167.584 86.7851C167.665 86.3591 167.387 85.948 166.959 85.8662Z" fill="#FFB524" class="fill-path"/>
</svg>
