<svg style="height:1em;width:1.0058em" viewBox="0 0 172 171" fill="none" xmlns="http://www.w3.org/2000/svg">
<path d="M132.266 13.7027C132.26 13.6995 132.255 13.694 132.25 13.6909C132.233 13.6799 132.215 13.6697 132.197 13.6579C131.472 13.1918 130.738 12.7406 129.997 12.2964C129.784 12.1683 129.57 12.0433 129.356 11.9176C128.746 11.5583 128.13 11.207 127.511 10.8627C127.346 10.7715 127.182 10.6772 127.017 10.5868C126.255 10.171 125.487 9.76693 124.711 9.3739C124.523 9.27879 124.334 9.18682 124.144 9.09249C123.501 8.77178 122.852 8.45972 122.199 8.15473C122.009 8.06669 121.821 7.9763 121.63 7.88905C120.824 7.52039 120.013 7.16273 119.194 6.81844C119.065 6.76421 118.935 6.7139 118.806 6.65966C118.092 6.36411 117.372 6.07798 116.648 5.80129C116.446 5.72426 116.244 5.64644 116.042 5.57098C115.193 5.2542 114.34 4.94607 113.479 4.65523C113.466 4.6513 113.455 4.64737 113.443 4.64344C112.6 4.35967 111.75 4.09241 110.895 3.8338C110.685 3.77013 110.475 3.70804 110.265 3.64594C109.468 3.41169 108.668 3.18767 107.862 2.97622C107.78 2.955 107.7 2.93142 107.617 2.91019C106.739 2.68224 105.854 2.47236 104.965 2.27192C104.748 2.22318 104.531 2.17681 104.314 2.12964C103.576 1.97007 102.837 1.81994 102.094 1.68002C101.909 1.64543 101.725 1.6077 101.54 1.5739C100.654 1.41276 99.7632 1.26577 98.8694 1.13214C98.6556 1.09991 98.4402 1.0724 98.2257 1.04253C97.5025 0.940346 96.777 0.846805 96.0483 0.763484C95.8038 0.735186 95.5594 0.706102 95.3141 0.680162C94.4149 0.584264 93.5125 0.500156 92.6062 0.432556C92.4356 0.419979 92.265 0.412119 92.0952 0.400328C91.3257 0.347662 90.5538 0.306002 89.7795 0.273773C89.5154 0.262769 89.2513 0.25255 88.9864 0.243903C88.0573 0.213247 87.1235 0.19281 86.1849 0.19281C39.0807 0.194382 0.902177 38.3745 0.897461 85.4787C0.897461 86.6114 0.926545 87.737 0.970564 88.8595C0.978424 89.0481 0.983927 89.2368 0.991787 89.4255C1.04131 90.5031 1.11127 91.5753 1.20009 92.6428C1.20795 92.7277 1.21031 92.8141 1.2166 92.899C1.21896 92.9202 1.22603 92.9399 1.22839 92.9611C5.02188 136.56 41.6024 170.765 86.1849 170.767C133.289 170.765 171.468 132.583 171.471 85.4795C171.469 55.3501 155.849 28.8751 132.266 13.7027ZM119.961 21.586C127.017 30.8095 130.192 41.4519 130.196 52.2979C130.218 74.3364 116.912 97.1461 96.2252 109.012C85.9742 114.902 74.685 117.724 63.5513 117.724C41.5529 117.718 20.2453 106.713 8.78314 86.6373C8.77763 86.2498 8.75877 85.867 8.75877 85.4787C8.8358 42.7198 43.426 8.13115 86.1849 8.05412C86.9725 8.05412 87.7554 8.07377 88.5368 8.09735C88.9628 8.11071 89.3873 8.12722 89.8118 8.14766C90.1057 8.16102 90.3989 8.1791 90.6921 8.19561C96.8194 8.55719 102.754 9.62937 108.416 11.3296C112.702 13.8002 116.572 17.1786 119.961 21.586ZM86.1849 162.905C46.5419 162.833 13.9263 133.095 9.3208 94.6857C22.1107 112.186 42.5842 121.658 63.5513 121.654C75.3484 121.654 87.3184 118.66 98.1832 112.417C120.087 99.8084 134.104 75.9014 134.127 52.2971C134.132 40.6863 130.692 29.1345 123.081 19.1956C122.243 18.0951 121.362 17.0693 120.46 16.0813C146 28.7336 163.556 55.0317 163.612 85.4779C163.532 128.238 128.944 162.828 86.1849 162.905Z" fill="#FFB524" class="fill-path"/>
<path d="M83.0619 14.3496C71.6909 14.3583 59.0865 18.6218 46.2928 26.0036C25.1487 38.2998 16.2192 61.4216 16.1626 74.7027C16.1744 77.6897 16.5973 80.231 17.6671 82.2339C27.2082 99.821 45.4761 109.44 64.2258 109.435C73.5601 109.435 83.0352 107.055 91.6315 102.093C108.963 92.0634 120.038 73.0874 120.062 54.3054C120.067 45.0685 117.34 35.8584 111.305 27.9452C104.218 18.5943 94.2074 14.3174 83.0619 14.3496ZM116.133 54.3046C116.155 71.5294 105.78 89.4082 89.6679 98.6891C81.6848 103.296 72.8951 105.504 64.2265 105.504C46.7958 105.497 29.9232 96.5911 21.1234 80.3591C20.526 79.2909 20.0826 77.2794 20.0936 74.7019C20.037 62.9827 28.5885 40.6737 48.2571 29.4064C60.6469 22.2463 72.6915 18.2704 83.0619 18.2799C93.2523 18.309 101.779 21.968 108.18 30.3245C113.661 37.5256 116.128 45.8279 116.133 54.3046Z" fill="#FFB524" class="fill-path"/>
<path d="M148.254 109.481C147.851 109.316 147.391 109.506 147.226 109.906C139.757 127.935 125.1 142.74 106.184 150.299C105.781 150.459 105.584 150.919 105.745 151.322C105.905 151.724 106.363 151.921 106.768 151.758C126.081 144.042 141.046 128.925 148.676 110.508C148.844 110.108 148.654 109.646 148.254 109.481Z" fill="#FFB524" class="fill-path"/>
<path d="M153.48 83.3917C153.046 83.3823 152.686 83.7266 152.678 84.1589C152.566 88.9381 151.976 93.634 150.947 98.1954C150.849 98.6183 151.117 99.0397 151.54 99.1364C151.962 99.2315 152.383 98.9642 152.478 98.5413C153.533 93.88 154.134 89.078 154.248 84.1951C154.259 83.7627 153.915 83.4035 153.48 83.3917Z" fill="#FFB524" class="fill-path"/>
</svg>
