<svg style="height:1em;width:0.9424em" viewBox="0 0 131 139" fill="none" xmlns="http://www.w3.org/2000/svg">
<path d="M98.3697 51.2101C89.5714 45.4868 72.1431 39.0286 73.0981 30.5291C73.1005 28.9404 73.5257 27.0303 74.7567 24.6407C84.3261 6.1127 82.824 10.3307 85.05 5.62456C85.7874 4.02888 85.3739 2.13056 84.0384 0.98764C82.7053 -0.154494 80.7637 -0.273188 79.3024 0.700731C79.1161 0.830429 78.9495 0.969561 78.7679 1.10162C78.2067 1.00022 77.6077 1.13227 77.1416 1.53159C75.4264 3.01565 74.006 4.75519 72.8269 6.66923C67.7538 12.6008 64.4665 19.522 57.6514 25.3977C45.4385 36.2429 35.462 47.775 24.2804 56.3917C12.3866 65.6947 0.563599 78.1127 0.00864657 93.1428C0.00235816 93.3441 0 93.5429 0 93.7449C0.202015 105.583 8.18359 113.147 11.7515 116.015C12.3599 120.584 16.4536 130.903 32.8413 134.126C35.2151 134.628 37.6998 134.797 40.1704 134.8C46.7347 134.788 53.2935 133.572 56.1729 132.969C59.4994 134.736 68.223 138.853 78.404 138.91C81.6692 138.91 85.0956 138.462 88.4914 137.303C101.61 132.75 108.115 122.844 110.208 119.084C114.946 117.112 128.988 110.155 130.71 93.7921C130.79 92.8614 130.83 91.9425 130.83 91.0425C130.471 67.4633 105.487 56.8327 98.3697 51.2101ZM7.86131 93.7449C7.86131 93.6113 7.86367 93.4753 7.86602 93.3417C7.9517 82.8259 17.7774 71.2426 29.0894 62.6118C38.3727 55.4202 46.4635 46.8467 55.0669 38.535C51.1916 49.5366 38.1227 61.1922 25.7809 71.5736C16.3538 79.5496 13.987 90.2329 14.009 99.7276C14.009 102.582 14.2181 105.343 14.505 107.939C13.9603 107.388 13.3825 106.764 12.7985 106.058C10.2187 102.957 7.84794 98.7096 7.86131 93.7449ZM11.7051 113.772L11.7035 113.778L11.7059 113.761C11.7059 113.763 11.7059 113.769 11.7051 113.772ZM34.4707 126.437C18.9132 122.846 19.891 115.063 19.5491 114.29H19.5468C19.6018 113.461 19.3927 112.679 18.9957 112.017C18.4518 108.27 17.9385 104.058 17.9401 99.7276C17.9605 90.7894 20.0498 81.5996 28.3222 74.5692C41.8431 63.0127 56.9566 50.2157 59.8013 36.0346C59.9561 35.1699 60.188 34.3037 60.471 33.4406C60.6596 33.2677 60.8499 33.0963 61.0393 32.9242C59.9648 41.4795 60.6015 51.6251 55.7924 60.0052C49.8074 70.6767 42.8194 86.2751 42.7856 100.167C42.7856 101.757 42.8807 103.328 43.0819 104.867C44.4685 115.859 48.8241 121.302 53.0876 125.573C50.0393 126.15 44.9355 126.949 40.172 126.938C38.0795 126.942 36.0861 126.78 34.4707 126.437ZM99.7359 120.376C96.8173 123.785 92.325 127.688 85.9532 129.862C83.5047 130.7 80.9547 131.049 78.404 131.049C68.352 131.116 58.8839 125.355 58.8053 125.452C58.6843 125.379 58.5538 125.33 58.4273 125.271C53.3588 120.302 48.6731 116.582 46.9776 104.353C46.8008 103.003 46.7151 101.605 46.7151 100.168C46.6813 87.5933 53.3698 72.2668 59.2172 61.9342C65.1488 51.2274 63.8235 38.9131 65.2746 30.9048C65.578 35.0033 67.0636 38.3951 69.2339 41.2461C69.5507 42.727 69.9075 44.1285 70.3029 45.4122C74.3943 57.989 88.3994 63.2461 99.0646 73.7501C104.694 79.1181 106.967 89.2102 106.937 98.4888C106.951 104.029 106.139 109.283 105.035 112.866C104.522 113.256 104.096 113.755 103.823 114.356C103.823 114.362 102.648 116.981 99.7359 120.376ZM122.879 93.1129C122.288 99.9202 118.338 104.579 114.176 107.785C112.563 109.023 110.987 109.961 109.66 110.652C110.415 107.1 110.856 102.915 110.868 98.4872C110.836 88.6497 108.689 77.6686 101.798 70.9251C91.2756 60.9147 79.3229 55.3777 75.0782 46.8522C81.997 51.9584 90.5453 54.7371 93.688 57.5244C102.796 63.93 123.332 74.0803 122.969 91.0425C122.969 91.7177 122.94 92.4055 122.879 93.1129Z" fill="#FFB524" class="fill-path"/>
<path d="M94.4458 82.5435C94.0905 82.7943 94.0072 83.2856 94.2556 83.6393C96.4935 86.8071 98.0051 90.5228 98.5506 94.5458C98.6072 94.9757 99.0034 95.2776 99.4349 95.2178C99.8649 95.1589 100.166 94.7627 100.107 94.3328C99.5276 90.0543 97.9186 86.1004 95.54 82.733C95.29 82.3785 94.7988 82.2952 94.4458 82.5435Z" fill="#FFB524" class="fill-path"/>
<path d="M99.1612 102.497C98.7375 102.407 98.3193 102.677 98.2289 103.102C95.8417 114.279 85.9075 122.668 74.0138 122.665C73.5814 122.665 73.2285 123.018 73.2285 123.453C73.2285 123.888 73.5814 124.238 74.0138 124.238C86.6629 124.236 97.2259 115.324 99.7672 103.431C99.8584 103.004 99.5872 102.588 99.1612 102.497Z" fill="#FFB524" class="fill-path"/>
</svg>
