<svg style="height:1em;width:0.3907em" viewBox="0 0 84 215" fill="none" xmlns="http://www.w3.org/2000/svg">
<path d="M83.0203 113.687C83.1539 110.34 81.7036 107.467 80.1449 106.237C79.9798 106.097 79.8407 105.984 79.7181 105.886C77.8292 79.6696 75.8601 62.1634 73.1656 49.6432C73.6914 48.7062 74.1363 47.4493 74.0168 46.3685C74.0121 45.2531 73.8219 44.1243 73.4595 42.7299C73.1184 40.7875 71.7027 38.6786 69.9058 37.8249C66.966 29.5494 63.0428 24.0462 58.1669 19.6097C56.8149 18.3678 55.334 17.489 53.809 16.875C55.0463 16.3303 56.2316 15.6795 57.3077 14.9162C59.0135 15.6166 61.1319 16.0324 63.6858 16.0355C64.8578 16.0355 66.1288 15.9624 67.5123 15.8115C68.5915 15.6936 69.3697 14.7228 69.2526 13.6459C69.1347 12.5667 68.1639 11.7854 67.0862 11.9033C65.8254 12.0416 64.6943 12.1045 63.6858 12.1045C62.4226 12.0636 61.374 11.9599 60.4952 11.8082C61.6035 10.2636 62.322 8.44936 62.4469 6.32701C62.4469 5.53939 62.3385 4.73211 62.1239 3.91934C61.686 1.92355 60.154 0.144714 58.1221 0.173798C54.3404 0.572327 52.3022 4.18738 52.0915 8.02332C52.0954 9.63158 52.6535 11.1715 53.765 12.4645C53.666 12.5203 53.5693 12.5777 53.4671 12.6327C51.4579 13.7261 49.0589 14.4972 46.8619 14.9044V9.14265C46.8619 6.96922 45.1043 5.21161 42.9316 5.21161C40.7613 5.21161 39.0029 6.96922 39.0029 9.14265V16.4191C38.1367 16.5669 37.3263 16.7084 36.5976 16.8185C24.5364 18.705 14.4286 28.5802 8.4373 44.9819C6.56571 45.7601 5.10994 47.6922 4.64774 49.4734C4.25471 50.5873 4.00082 51.5871 3.99217 52.73C3.84518 53.9233 4.45044 55.2006 5.18461 56.1486C2.99153 65.7148 2.46959 73.5353 2.17325 83.3853C1.35811 84.3718 0.362182 86.5814 0.480876 88.9474C0.480876 89.1085 0.483234 89.2736 0.487165 89.4458V89.441C0.517035 92.2512 1.43357 94.4891 2.23692 95.6815C3.05834 96.9777 2.80523 96.5226 2.85947 96.7199C3.92771 109.476 4.74128 132.742 6.01468 146.6C5.86219 146.82 5.62873 147.177 5.33318 147.73C4.76014 148.826 4.3624 150.377 4.38048 152.089C4.38048 152.478 4.3962 152.88 4.43 153.301C4.53376 155.505 5.75607 157.347 6.72527 158.304C6.35426 159.205 5.9125 160.572 5.91879 162.23C5.91879 162.717 5.95494 163.224 6.02569 163.744C6.26465 166.261 7.5577 168.496 8.82639 169.432C10.7915 181.354 13.5042 191.983 17.9556 200.106C22.3795 208.358 29.4862 214.366 38.955 214.301H38.9573H39.0139C55.007 214.408 71.9951 202.155 78.2277 170.859L78.2497 170.874C78.5759 170.075 80.5623 168.951 81.4026 165.4C81.4678 164.989 81.4953 164.588 81.4953 164.21C81.2375 160.569 79.9397 158.739 80.1708 158.383V158.347L80.1732 158.345C80.8704 151.983 81.243 144.98 81.243 137.275C81.243 131.992 81.0622 126.372 80.6967 120.411C80.9475 120.119 81.3177 119.658 81.7367 118.973C82.5204 117.665 83.0407 115.809 83.0203 113.687ZM56.998 5.11414C57.4076 4.49237 57.8336 4.26127 58.023 4.16537C58.104 4.29271 58.2227 4.52931 58.3265 4.93099C58.4601 5.4317 58.519 5.89311 58.519 6.32701C58.5418 7.66881 57.9232 8.97444 56.8007 10.1669C56.2175 9.49716 56.076 8.73862 56.0225 8.0241C56.0131 7.04232 56.4274 5.8994 56.998 5.11414ZM5.67825 54.0758C5.67747 54.0781 5.67747 54.0805 5.67668 54.0828H5.6759L5.67825 54.0758ZM74.8194 115.185C74.7612 115.37 72.8378 116.911 72.7969 119.808C72.7969 119.951 72.8016 120.091 72.8102 120.229V120.224C73.1978 126.291 73.3833 131.968 73.3833 137.275C73.3833 144.726 73.0217 151.445 72.3583 157.486V157.482C72.3245 157.792 72.3088 158.092 72.3088 158.383C72.5021 161.451 73.4784 163.393 73.6395 164.001C73.3408 164.764 71.5353 165.753 70.5566 169.128C64.2824 198.561 50.7906 206.266 38.9943 206.439H38.9558C32.9323 206.373 28.7733 203.228 24.8406 196.312C21.0361 189.449 18.3282 179.191 16.4519 167.379C16.3159 166.263 15.6305 164.939 14.9034 164.26C14.4482 163.811 14.1252 163.591 13.9695 163.477C13.931 163.359 13.8752 163.127 13.8131 162.67C13.7887 162.489 13.7793 162.346 13.7793 162.228C13.571 161.411 14.4836 161.604 15.0354 157.546C15.0354 157.31 15.0221 157.069 14.9922 156.825C14.2659 153.498 12.4014 153.095 12.3424 152.779L12.2654 152.677C12.2457 152.443 12.2386 152.249 12.2386 152.086C12.3086 151.075 12.2795 151.471 12.4399 151.12C12.5546 150.921 13.9428 149.267 13.9106 146.975C13.9106 146.751 13.8988 146.525 13.8791 146.303C12.6167 132.911 11.793 109.29 10.6901 96.0651C10.5274 93.6558 9.16518 91.954 8.89871 91.5099C8.61337 90.9628 8.45695 90.9675 8.34376 89.1958V89.1911C8.34218 89.1077 8.34218 89.0252 8.34218 88.9458C8.34218 88.3846 8.40743 88.1653 8.4145 88.1448C8.45066 88.1197 8.30996 88.1126 8.52533 88.045C8.79259 87.8005 10.0165 86.2457 10.0078 84.4496C10.3246 73.5644 10.8112 66.0929 13.3092 55.9599L13.3116 55.9529C13.391 55.6274 13.4523 55.2454 13.4523 54.806C13.516 53.939 13.1355 53.0224 12.6584 52.3087C13.8005 51.764 15.0252 50.6674 15.1038 49.732C20.548 33.5048 29.138 25.9044 37.8026 24.5831C40.737 24.1162 43.9118 23.4645 46.6709 23.474C49.3765 23.4905 51.3526 24.0234 52.8524 25.3974C57.1945 29.4299 60.2656 33.7005 63.0223 41.991C63.2141 43.1819 64.8082 44.5826 65.915 44.9615C66.0078 45.3364 66.073 45.6532 66.1076 45.8788C65.5833 46.455 65.0079 47.7803 65.0637 48.8289C65.0637 49.2722 65.1203 49.6597 65.1973 50.0009C67.9171 61.9779 69.986 79.8229 71.9472 107.401C72.3363 110.958 75.0387 111.987 74.9302 112.116L74.9782 112.182C75.0214 112.277 75.1629 112.696 75.1629 113.684C75.0757 115.149 75.0143 114.82 74.8194 115.185Z" fill="#FFB524" class="fill-path"/>
<path d="M32.5566 39.5889C33.3096 38.806 33.2876 37.5617 32.5047 36.8102C31.7242 36.0572 30.4799 36.0792 29.726 36.8621C27.4771 39.2446 23.9399 43.182 23.6774 48.3668C23.6341 49.4507 24.4791 50.3649 25.5623 50.4081C26.6455 50.4514 27.5605 49.6048 27.6037 48.5216C27.6752 45.2414 30.4248 41.7545 32.5566 39.5889Z" fill="#FFB524" class="fill-path"/>
<path d="M56.6467 44.1079C55.5918 39.5771 52.5891 34.0968 50.5572 32.0672C49.7625 31.3299 48.5181 31.377 47.7808 32.1717C47.0435 32.9688 47.0883 34.2107 47.8854 34.9481C48.7744 35.6311 52.2 41.6138 52.7998 44.9207C53.0238 45.9827 54.0669 46.661 55.1312 46.437C56.1916 46.2122 56.8707 45.1699 56.6467 44.1079Z" fill="#FFB524" class="fill-path"/>
<path d="M30.0849 84.9261C31.1327 84.6407 31.7497 83.5615 31.4652 82.5137C31.0981 81.1672 30.9472 79.7106 30.9472 78.2415C30.9448 74.955 31.7096 71.6449 32.2662 69.3394C32.52 68.2845 31.8708 67.2242 30.8135 66.9703C29.7586 66.7164 28.6983 67.368 28.4444 68.4229C27.8847 70.7645 27.0185 74.3717 27.0161 78.2415C27.0161 79.9771 27.193 81.7756 27.6725 83.5458C27.9578 84.5928 29.0371 85.2106 30.0849 84.9261Z" fill="#FFB524" class="fill-path"/>
<path d="M21.6238 118.138C21.6222 115.025 21.8981 111.619 22.0954 109.125C22.1811 108.041 21.3731 107.095 20.2915 107.012C19.2098 106.926 18.2642 107.734 18.1785 108.815C17.9812 111.309 17.6943 114.805 17.6943 118.138C17.6967 120.356 17.8138 122.491 18.2194 124.332C18.4568 125.391 19.507 126.058 20.5658 125.823C21.6246 125.587 22.292 124.534 22.0554 123.476C21.7512 122.132 21.6199 120.195 21.6238 118.138Z" fill="#FFB524" class="fill-path"/>
<path d="M47.2805 115.685C46.2146 115.889 45.515 116.918 45.7194 117.984C45.8994 118.894 46.0857 121.496 46.0786 124.093C46.081 126.213 45.9639 128.419 45.7123 129.861C45.5268 130.928 46.2437 131.945 47.3143 132.131C48.3841 132.316 49.4005 131.599 49.5836 130.528C49.9004 128.682 50.0073 126.357 50.0097 124.093C50.0026 121.291 49.8509 118.716 49.5797 117.249C49.3753 116.183 48.3464 115.484 47.2805 115.685Z" fill="#FFB524" class="fill-path"/>
<path d="M61.3763 77.861C61.4848 77.2274 61.5241 76.5671 61.5241 75.8566C61.4699 71.0797 59.8805 64.0988 58.8649 61.7674C58.4098 60.7809 57.2401 60.3533 56.256 60.81C55.2719 61.2651 54.8435 62.4324 55.2986 63.4189C55.8865 64.5523 57.6473 72.1016 57.5931 75.8558C57.5931 76.4123 57.5593 76.8808 57.5027 77.1929C57.3195 78.2627 58.0372 79.279 59.107 79.463C60.1752 79.6485 61.1908 78.9316 61.3763 77.861Z" fill="#FFB524" class="fill-path"/>
<path d="M37.0363 150.608C37.0253 149.521 36.1355 148.653 35.05 148.666C33.9636 148.677 33.0951 149.567 33.1061 150.653C33.1831 154.624 33.911 161.019 35.6513 164.827C36.1135 165.812 37.2831 166.232 38.2649 165.771C39.2475 165.309 39.6704 164.139 39.209 163.157C37.9308 160.542 37.0434 154.045 37.0363 150.608Z" fill="#FFB524" class="fill-path"/>
<path d="M31.4606 183.112C31.1666 182.069 30.0826 181.46 29.0372 181.752C27.9941 182.047 27.3833 183.133 27.6773 184.176C28.8313 188.104 28.8564 191.831 32.0894 195.232C32.8456 196.01 34.0899 196.029 34.8681 195.273C35.6463 194.517 35.6652 193.272 34.9098 192.494C32.8299 190.424 32.7002 187.698 31.4606 183.112Z" fill="#FFB524" class="fill-path"/>
<path d="M64.8158 109.075C64.8158 111.309 64.734 113.388 64.6727 115.198C64.6562 115.633 64.9965 115.998 65.4304 116.014C65.8651 116.027 66.2275 115.687 66.2432 115.253C66.3038 113.447 66.3886 111.347 66.3886 109.075C66.3886 105.345 66.1646 101.146 65.2387 96.9872C65.1435 96.5612 64.7254 96.2947 64.3001 96.389C63.8764 96.4841 63.6092 96.9031 63.7043 97.3284C64.5941 101.32 64.8181 105.407 64.8158 109.075Z" fill="#FFB524" class="fill-path"/>
<path d="M66.5759 123.807C66.5759 123.372 66.2229 123.021 65.7906 123.021C65.3559 123.019 65.003 123.372 65.003 123.807C65.003 124.017 65.003 124.229 65.003 124.441C65.003 127.634 65.0211 130.795 65.0211 133.933C65.0234 149.998 64.5125 165.496 58.3868 181.841C58.2351 182.246 58.441 182.698 58.8482 182.852C59.2538 183.003 59.7081 182.797 59.8598 182.39C66.0917 165.758 66.594 150.021 66.594 133.933C66.594 130.787 66.5759 127.627 66.5759 124.441C66.5759 124.229 66.5759 124.019 66.5759 123.807Z" fill="#FFB524" class="fill-path"/>
</svg>
