<svg style="height:1em;width:0.7042em" viewBox="0 0 150 213" fill="none" xmlns="http://www.w3.org/2000/svg">
<path d="M139.227 103.916C132.934 93.4565 124.65 87.5729 118.153 83.722C114.91 81.7985 112.084 80.3365 110.282 79.1692C109.384 78.5946 108.759 78.0923 108.49 77.8022L108.39 77.836L108.295 77.4014C104.883 65.1775 100.092 50.215 100.085 50.1922C99.5667 48.5674 98.0661 47.4764 96.3699 47.4646C95.7276 40.4097 94.8473 33.5475 94.8528 27.5979C94.8528 25.1069 95.0045 22.7825 95.3731 20.6869C95.5335 19.7688 95.0249 18.8609 94.1579 18.519C93.2909 18.1771 92.3005 18.4938 91.7911 19.2728C89.815 22.3801 85.1898 30.2139 81.5323 38.8369C81.6243 36.562 81.6801 34.2047 81.6809 31.8182C81.6314 20.5336 80.5836 8.7232 75.7478 1.76743C75.361 1.2219 74.7298 0.9122 74.0601 0.941284C73.3896 0.970368 72.7883 1.3351 72.4511 1.91206C68.3848 8.91578 67.2647 18.6298 67.2443 28.141C67.245 32.0611 67.4494 35.9473 67.7544 39.5828C64.159 30.1376 58.9263 20.8481 53.7957 18.5033C53.1598 18.2682 52.4586 18.3743 51.9225 18.7839C51.3833 19.1958 51.0964 19.8427 51.1553 20.5171C51.9249 29.2722 52.2629 38.6458 52.9373 47.562C51.5916 47.8576 50.4683 48.8347 50.0352 50.1922C50.0281 50.2173 45.2403 65.179 41.8414 77.4037L41.7463 77.8384L41.6449 77.8062C39.3952 80.8561 21.8403 85.8349 11.0235 103.922C4.25319 115.195 0.885742 127.919 0.885742 140.64C0.88417 159.153 8.02545 177.713 22.1933 191.822C36.13 205.709 54.3892 212.984 72.7348 212.982C73.0673 212.982 76.9685 212.982 77.301 212.982C95.7072 212.984 114.028 205.713 128.017 191.826C142.233 177.719 149.406 159.157 149.402 140.639C149.401 127.916 146.02 115.19 139.227 103.916ZM92.6479 50.0861C92.622 50.1584 92.5882 50.2268 92.5661 50.3014L86.4624 71.4667L80.6873 54.5783C81.9513 46.5347 86.9915 35.7783 90.9422 28.4798C91.0326 35.2501 92.045 42.7019 92.6479 50.0861ZM74.2661 7.18332C76.8294 13.1738 77.7931 22.6796 77.7522 31.819C77.753 37.3607 77.4456 42.7679 77.0754 47.2775C76.4592 46.9497 75.7619 46.7744 75.0443 46.8059C74.1521 46.7587 73.2859 47.0205 72.5737 47.518C71.8411 42.0259 71.1745 35.1133 71.1761 28.1418C71.1604 20.5344 72.0093 12.9019 74.2661 7.18332ZM68.4053 57.3853L63.6127 71.4258L57.557 50.3061C57.4359 49.884 57.2473 49.4949 57.0067 49.1483C56.3606 41.2658 56.0171 32.8346 55.4275 24.6683C60.856 31.4472 68.3825 50.1073 68.4053 57.3853ZM122.479 186.249C109.954 198.677 93.643 205.119 77.3002 205.121C76.8954 205.121 73.1389 205.121 72.734 205.121C56.4612 205.119 40.2143 198.681 27.7389 186.254C15.0936 173.654 8.75098 157.149 8.74626 140.641C8.74626 129.302 11.7443 117.988 17.7615 107.97C23.1491 99.0154 30.0491 94.0625 36.0459 90.4758C41.7282 86.5864 47.1724 85.8994 49.3584 79.4962L49.4127 79.5119C50.723 74.7995 52.2519 69.647 53.6267 65.1193L59.5095 85.6337C59.9843 87.2875 61.4691 88.4352 63.1914 88.4784C64.9113 88.5216 66.4519 87.4487 67.0069 85.8192L75.0277 62.3194L83.0643 85.8216C83.6209 87.4487 85.1576 88.5216 86.8798 88.4784C88.5997 88.4352 90.0822 87.2923 90.5594 85.6384L96.487 65.0808C97.8673 69.6179 99.4048 74.7893 100.725 79.5151L100.78 79.4993C102.976 85.908 108.431 86.5848 114.139 90.4813C120.157 94.068 127.086 99.0233 132.495 107.977C138.531 117.993 141.54 129.305 141.54 140.642C141.536 157.143 135.172 173.646 122.479 186.249Z" fill="#FFB524" class="fill-path"/>
<path d="M131.762 140.536C131.336 140.455 130.925 140.735 130.843 141.163C129.992 145.639 128.709 149.964 127.034 154.091C126.871 154.494 127.066 154.951 127.467 155.114C127.869 155.279 128.329 155.084 128.492 154.681C130.205 150.459 131.517 146.035 132.389 141.454C132.47 141.029 132.189 140.618 131.762 140.536Z" fill="#FFB524" class="fill-path"/>
<path d="M122.814 164.265C122.445 164.035 121.961 164.15 121.732 164.519C111.943 180.298 95.9563 191.913 77.1225 196.04C76.6988 196.135 76.4299 196.554 76.5227 196.977C76.6155 197.403 77.0368 197.67 77.4597 197.577C96.7148 193.354 113.059 181.483 123.068 165.347C123.298 164.978 123.183 164.494 122.814 164.265Z" fill="#FFB524" class="fill-path"/>
</svg>
