<svg style="height:1em;width:1.035em" viewBox="0 0 168 161" fill="none" xmlns="http://www.w3.org/2000/svg">
<path d="M167.734 76.3796C167.877 44.326 146.667 24.2746 118.109 16.554C115.073 15.7098 112.022 15.4158 109.022 15.4158C103.343 15.4456 97.7749 16.4156 92.3197 17.0822C93.3486 16.6397 94.4373 16.0698 95.5692 15.3277C97.6444 13.9569 100.341 13.5127 102.697 13.5198C105.492 13.5151 107.615 14.1196 107.626 14.0944C108.673 14.3766 109.753 13.7588 110.036 12.711C110.321 11.6639 109.701 10.5839 108.653 10.3017C108.549 10.275 106.037 9.59113 102.697 9.58877C99.898 9.59585 96.4567 10.0628 93.417 12.0397C90.8128 13.7383 88.6189 14.3129 87.1239 14.4914C86.6782 13.0395 86.3009 11.201 86.3032 9.18631C86.3032 7.953 86.4408 6.65365 86.7804 5.31186C87.3165 3.20682 86.0446 1.06954 83.9404 0.535024C81.8361 -0.00184983 79.698 1.27077 79.1635 3.37503C78.6455 5.40697 78.4419 7.3666 78.4419 9.18631C78.449 10.7301 78.5984 12.1615 78.8232 13.4742C75.6011 12.799 71.7094 11.7591 69.5918 10.4016C67.618 9.1816 65.4438 8.81923 63.4841 8.81687C59.4022 8.83495 56.0096 10.3418 55.8783 10.385C54.8824 10.8174 54.4257 11.9737 54.858 12.9696C55.2903 13.9655 56.4466 14.4222 57.4426 13.9922C57.4449 13.9781 60.4067 12.7298 63.4849 12.7479C64.9651 12.7456 66.3878 13.0325 67.5221 13.7415C70.377 15.4661 74.5345 16.6035 77.9121 17.3086C71.9987 16.5548 65.8289 14.9677 59.3668 14.9158C57.158 14.9158 54.9067 15.1218 52.6484 15.6736C22.5662 22.7827 0.149565 43.0974 0.305989 76.3796C0.329571 117.065 32.9767 148.854 74.4865 153.177L72.9018 154.564C72.1818 155.194 72.0191 156.242 72.5127 157.058C73.0056 157.878 74.0086 158.221 74.9 157.878L84.0237 154.368L88.6378 158.321C89.0953 158.715 89.7131 158.875 90.3058 158.755C90.8961 158.635 91.4031 158.248 91.6751 157.708L93.1301 154.798L103.141 160.136C103.967 160.578 104.99 160.374 105.585 159.649C106.178 158.925 106.18 157.882 105.587 157.157L101.383 152.021C139.094 144.764 167.712 114.47 167.734 76.3796ZM84.0213 145.825C41.8253 145.771 8.24197 115.303 8.16494 76.3788C8.32136 46.9726 26.5279 30.3791 54.5106 23.3093C56.0379 22.9359 57.6446 22.7756 59.3644 22.7756C66.0648 22.7025 74.3089 25.4977 83.6275 25.5566C93.1545 25.5197 101.766 23.2323 109.022 23.2755C111.513 23.2755 113.828 23.5208 116.005 24.1268C142.481 31.7028 159.732 48.1038 159.875 76.3788C159.798 115.303 126.215 145.771 84.0213 145.825Z" fill="#FFB524" class="fill-path"/>
<path d="M148.231 75.0825C147.805 75.0008 147.394 75.279 147.31 75.7074C146.411 80.4002 145.054 84.9349 143.287 89.2637C143.122 89.6669 143.314 90.1236 143.717 90.2895C144.117 90.4545 144.577 90.2596 144.742 89.8587C146.55 85.4348 147.936 80.7987 148.855 76.0014C148.936 75.5762 148.656 75.1643 148.231 75.0825Z" fill="#FFB524" class="fill-path"/>
<path d="M138.765 99.9493C138.399 99.7182 137.912 99.8321 137.684 100.198C127.338 116.746 110.441 128.93 90.5346 133.261C90.1109 133.354 89.8421 133.772 89.9348 134.195C90.0276 134.621 90.4465 134.89 90.8694 134.797C111.194 130.373 128.447 117.94 139.017 101.033C139.245 100.665 139.134 100.18 138.765 99.9493Z" fill="#FFB524" class="fill-path"/>
</svg>
