<svg style="height:1em;width:0.4601em" viewBox="0 0 98 213" fill="none" xmlns="http://www.w3.org/2000/svg">
<path d="M94.4143 131.475C93.0717 122.158 92.5765 114.024 92.5765 106.885C92.56 86.1934 96.7182 74.2045 96.8133 64.639C96.8133 64.562 96.8133 64.4858 96.8133 64.4087V64.404C96.7379 58.1903 95.308 49.5618 91.5201 41.9496C89.0629 36.9244 85.1923 32.1507 79.8566 29.5426L93.1377 6.66926C94.2264 4.79295 93.5882 2.38763 91.7126 1.29659C89.834 0.207909 87.4294 0.846969 86.3408 2.7217L72.191 27.0909C72.1077 27.2355 72.0519 27.3872 71.9882 27.5374C71.618 27.5193 71.2525 27.4902 70.8736 27.491C66.3955 27.3432 43.5583 28.097 30.4084 54.826C23.0471 69.713 8.88396 108.117 4.91676 128.135C3.45156 135.666 0.00707447 150.108 0 164.996C0.0165071 176.35 1.9667 188.203 8.92719 197.561C15.89 206.96 27.9127 213.05 45.7152 213H45.7192H45.8166C66.243 213.071 79.6585 206.248 87.3493 195.821C95.0321 185.439 97.0169 172.319 97.0342 159.973C97.0319 149.339 95.5148 139.132 94.4143 131.475ZM70.8736 35.3531C77.14 35.3735 81.2919 39.2857 84.4935 45.4751C86.5907 49.6168 87.8869 54.5862 88.5087 58.926C86.3997 55.8077 84.2459 53.2051 84.2176 53.0141C83.6808 52.3192 82.7422 52.0661 81.9271 52.3939C81.1127 52.7225 80.6144 53.5573 80.7095 54.4306C80.7095 54.4337 80.7504 54.7906 80.7504 55.5303C80.7551 57.0646 80.5358 59.9636 79.2844 62.8759C78.8159 63.9756 77.875 65.8598 77.0386 67.4901C75.3557 64.7412 72.7295 60.5877 70.1025 56.9884C66.1667 51.6613 64.178 42.7821 64.1442 42.7868C63.9721 42.0109 63.3432 41.4104 62.5603 41.2768C61.7774 41.1416 60.9827 41.4937 60.5614 42.1689C60.5732 42.2664 55.669 49.3936 52.3385 49.9469C50.7719 50.3227 49.6848 50.5184 48.9467 50.6214L47.8808 44.2292C57.774 35.3311 68.091 35.46 70.8736 35.3531ZM45.8166 205.139H45.7239C13.9776 204.689 8.45478 186.192 7.86131 164.996C7.85423 151.262 11.0998 137.406 12.6319 129.649C16.2367 111.058 30.5515 72.127 37.4483 58.3262C39.6139 54.0187 41.9996 50.5255 44.4725 47.6886L45.3529 52.9677C45.4637 53.6312 45.907 54.1948 46.5225 54.4549C46.9045 54.6082 47.2417 54.6515 47.7849 54.6585C48.6896 54.6538 50.2083 54.4911 53.2472 53.7719C56.6618 52.827 59.5246 49.987 61.419 47.6532C62.4511 50.924 64.2354 55.5916 66.9261 59.3088C71.1141 65.036 75.4508 72.4886 75.461 72.4988C75.821 73.1166 76.4821 73.4908 77.1966 73.4766C77.9119 73.4625 78.5588 73.0647 78.8937 72.4335C78.9078 72.4037 81.7911 66.998 82.8971 64.4252C83.5974 62.784 84.0195 61.1969 84.2821 59.7679C84.5132 60.0988 84.7474 60.4392 84.9817 60.7842C86.7864 63.2792 88.5016 66.6356 88.5928 67.2196C88.5535 67.3839 88.5205 67.4114 88.4938 67.8964C88.5008 68.0033 88.4843 68.1275 88.5771 68.4695C88.5779 68.519 88.6117 68.6212 88.673 68.7438C87.7329 76.521 84.727 88.8903 84.7144 106.886C84.7144 114.391 85.2371 122.912 86.6332 132.6C87.7391 140.255 89.1737 150.08 89.1721 159.974C88.5511 183.276 82.8735 204.689 45.8166 205.139Z" fill="#FFB524" class="fill-path"/>
<path d="M82.1226 171.003C81.706 170.879 81.2674 171.115 81.1432 171.53C80.6401 173.203 80.0223 174.822 79.2936 176.384C79.1104 176.779 79.2794 177.245 79.6732 177.428C80.0671 177.613 80.5355 177.442 80.7187 177.05C81.4772 175.421 82.1242 173.728 82.6469 171.984C82.7742 171.567 82.536 171.128 82.1226 171.003Z" fill="#FFB524" class="fill-path"/>
<path d="M78.3027 179.958C77.934 179.73 77.449 179.843 77.2211 180.209C70.8352 190.459 59.4689 197.28 46.5045 197.28C46.0698 197.28 45.7192 197.631 45.7192 198.065C45.7192 198.5 46.0698 198.851 46.5045 198.851C60.0301 198.851 71.8963 191.734 78.5534 181.042C78.7853 180.673 78.6713 180.189 78.3027 179.958Z" fill="#FFB524" class="fill-path"/>
</svg>
