<svg style="height:1em;width:0.7888em" viewBox="0 0 127 161" fill="none" xmlns="http://www.w3.org/2000/svg">
<path d="M110.22 81.1239C101.203 65.0098 90.6553 53.9894 81.971 46.9747C74.5027 41.2302 69.6048 38.2204 65.8404 37.061L53.9451 19.3284C57.7558 12.7499 62.9116 7.75694 69.1905 7.8945C71.3632 7.8945 73.1216 6.13374 73.1216 3.96423C73.1208 1.79159 71.3624 0.0331879 69.1898 0.0331879C56.6609 0.19197 49.3129 10.472 45.0336 19.3897C41.4044 26.9971 39.6672 34.3805 39.1657 36.7206C39.0848 36.7756 38.9975 36.8322 38.8992 36.888C32.3939 42.4501 13.3738 63.6783 5.92671 89.9796C2.23305 103.241 0.0910588 117.787 0.0839844 130.167C0.382684 144.554 2.15209 157.462 13.2999 160.297C13.924 160.401 14.5513 160.451 15.173 160.451C24.836 159.894 30.7872 150.686 36.4939 139.463C42.0379 128.006 46.5412 113.465 49.2319 100.001C51.4541 88.8579 52.2613 78.8271 52.2613 70.2253C52.2613 60.2236 51.1703 52.1634 49.9213 46.4771C49.294 43.6276 48.6329 41.3835 48.0064 39.7107C47.6881 38.8697 47.3925 38.1834 47.0309 37.5326C47.4782 35.591 48.4458 31.8455 50.0494 27.6338L58.9805 40.9441C58.4641 43.4492 58.1127 47.6216 58.0993 53.3519C58.1151 66.104 60.0291 85.7608 68.2182 103.432C73.9304 115.708 81.5968 127.971 89.5006 137.357C97.5364 146.626 105.223 153.548 113.777 153.862C115.753 153.869 117.783 153.371 119.557 152.317C125.226 148.764 126.615 142.12 126.671 134.878C126.608 119.577 119.652 98.0814 110.22 81.1239ZM41.5215 98.4642C38.9645 111.324 34.5673 125.429 29.4195 136.035C24.439 146.874 17.9101 153.149 15.1723 152.592C14.9805 152.592 14.7902 152.576 14.5992 152.545C13.2142 152.359 11.547 150.989 10.0849 146.898C8.69204 142.936 7.9335 136.998 7.94451 130.166C7.93743 118.691 9.98588 104.659 13.4972 92.0917C17.2867 78.4576 24.9248 65.7448 31.8373 56.5488C35.2889 51.9504 38.5565 48.2213 41.0137 45.7005C41.1874 45.522 41.347 45.364 41.5129 45.1974C42.8334 50.0159 44.4291 58.8 44.3992 70.2245C44.4 78.3358 43.6376 87.8517 41.5215 98.4642ZM115.563 145.548C115.035 145.849 114.529 145.993 113.778 146C110.479 146.314 102.731 141.119 95.5123 132.29C88.1596 123.578 80.7542 111.763 75.3477 100.116C67.8731 84.092 65.9449 65.3062 65.9607 53.3511C65.9607 50.335 66.0817 47.7591 66.2507 45.7987C73.506 49.6551 90.377 61.519 103.362 84.9638C112.25 100.743 118.876 121.898 118.812 134.878C118.867 141.212 117.131 144.83 115.563 145.548Z" fill="#FFB524" class="fill-path"/>
<path d="M32.8437 68.0015C28.3073 68.0102 24.6137 71.6575 24.6113 76.193C24.6137 80.7285 28.3066 84.3782 32.8437 84.3868C37.3807 84.3782 41.0744 80.7285 41.0768 76.193C41.0736 71.6575 37.3807 68.0102 32.8437 68.0015ZM32.8437 80.4565C30.4588 80.4565 28.5463 78.5378 28.5416 76.193C28.5463 73.8513 30.458 71.9318 32.8437 71.9318C35.2293 71.9318 37.141 73.8506 37.1457 76.193C37.141 78.537 35.2285 80.4565 32.8437 80.4565Z" fill="#FFB524" class="fill-path"/>
<path d="M26.2636 89.7948C20.1694 89.8058 15.2133 94.7077 15.2109 100.79C15.2133 106.869 20.1694 111.772 26.2636 111.782C32.3602 111.771 37.3132 106.869 37.3155 100.79C37.3124 94.7077 32.3602 89.8058 26.2636 89.7948ZM26.2636 107.853C22.3208 107.853 19.1491 104.68 19.142 100.791C19.1491 96.8984 22.3208 93.7259 26.2636 93.7259C30.2057 93.7259 33.3782 96.8984 33.3853 100.791C33.3774 104.68 30.2049 107.853 26.2636 107.853Z" fill="#FFB524" class="fill-path"/>
<path d="M19.6825 119.683C15.1462 119.692 11.4549 123.342 11.4502 127.878C11.4549 132.412 15.1454 136.06 19.6825 136.069C24.2196 136.06 27.9133 132.412 27.9156 127.878C27.9125 123.342 24.2196 119.692 19.6825 119.683ZM19.6825 132.138C17.2976 132.138 15.3852 130.22 15.3812 127.878C15.3852 125.533 17.2976 123.614 19.6825 123.614C22.0674 123.614 23.9807 125.533 23.9846 127.878C23.9799 130.219 22.0674 132.138 19.6825 132.138Z" fill="#FFB524" class="fill-path"/>
<path d="M89.3294 73.7044C89.327 68.481 85.0729 64.2749 79.8441 64.2654C74.6145 64.2749 70.3619 68.481 70.3604 73.7044C70.3627 78.9269 74.6145 83.1315 79.8441 83.1401C85.0729 83.1315 89.327 78.9261 89.3294 73.7044ZM79.8441 79.2099C76.7667 79.2099 74.2953 76.7338 74.289 73.7044C74.2961 70.6718 76.7667 68.1957 79.8441 68.1957C82.9215 68.1957 85.3952 70.671 85.3991 73.7044C85.3944 76.733 82.9215 79.2099 79.8441 79.2099Z" fill="#FFB524" class="fill-path"/>
<path d="M103.115 97.3637C103.113 91.1091 98.0189 86.0705 91.751 86.0587C85.4822 86.0705 80.3886 91.1091 80.3862 97.3637C80.3886 103.618 85.4822 108.658 91.751 108.67C98.0189 108.658 103.113 103.618 103.115 97.3637ZM91.751 104.739C87.6344 104.739 84.3236 101.428 84.3149 97.3637C84.3236 93.3022 87.6344 89.989 91.751 89.989C95.8667 89.989 99.1768 93.3022 99.1862 97.3637C99.1768 101.428 95.8675 104.739 91.751 104.739Z" fill="#FFB524" class="fill-path"/>
<path d="M96.0532 122.584C96.0548 127.635 100.169 131.699 105.224 131.707C110.282 131.698 114.393 127.634 114.396 122.584C114.393 117.533 110.282 113.467 105.224 113.458C100.169 113.468 96.0548 117.533 96.0532 122.584ZM105.224 117.388C108.127 117.388 110.46 119.724 110.465 122.584C110.46 125.442 108.127 127.779 105.224 127.779C102.321 127.779 99.9882 125.442 99.9835 122.584C99.9882 119.724 102.32 117.388 105.224 117.388Z" fill="#FFB524" class="fill-path"/>
<path d="M95.9211 96.6783C95.9597 96.907 95.9777 97.1381 95.9777 97.3685C95.9777 98.2803 95.6814 99.1945 95.0659 99.9687C94.507 100.668 93.7737 101.141 92.9727 101.381C92.5568 101.505 92.321 101.945 92.4452 102.358C92.5694 102.775 93.0073 103.012 93.4231 102.888C94.5188 102.563 95.5297 101.906 96.2945 100.949C97.138 99.8917 97.5506 98.623 97.5506 97.3685C97.5506 97.0501 97.5239 96.7349 97.4712 96.4205C97.4005 95.9929 96.9965 95.7036 96.5689 95.7759C96.1381 95.8459 95.8512 96.2507 95.9211 96.6783Z" fill="#FFB524" class="fill-path"/>
<path d="M95.362 95.1832C95.5907 95.5542 96.075 95.669 96.4436 95.4434C96.8154 95.217 96.9302 94.7328 96.7038 94.3618C96.3556 93.7958 95.9028 93.2778 95.351 92.8424C95.0083 92.5735 94.5154 92.6317 94.2466 92.9744C93.9793 93.3164 94.0383 93.8092 94.3779 94.078C94.7835 94.398 95.1113 94.7706 95.362 95.1832Z" fill="#FFB524" class="fill-path"/>
<path d="M30.1781 95.9567C29.8354 95.6871 29.3425 95.746 29.0737 96.088C28.8048 96.4299 28.863 96.9235 29.2049 97.1916C29.6105 97.5107 29.9383 97.8841 30.1891 98.296C30.4155 98.667 30.8997 98.7826 31.2707 98.5562C31.6401 98.3298 31.7573 97.8456 31.5293 97.4746C31.1827 96.907 30.7299 96.3914 30.1781 95.9567Z" fill="#FFB524" class="fill-path"/>
<path d="M30.7477 99.7926C30.7846 100.021 30.8043 100.252 30.8043 100.482C30.8019 101.395 30.508 102.309 29.8901 103.083C29.3312 103.783 28.6002 104.255 27.8 104.495C27.3834 104.619 27.1476 105.056 27.2702 105.473C27.3944 105.888 27.8338 106.127 28.2496 106.002C29.343 105.674 30.3562 105.02 31.1187 104.062C31.9629 103.006 32.3772 101.737 32.3748 100.482C32.3748 100.164 32.3505 99.8461 32.2978 99.534C32.2255 99.1064 31.8207 98.8172 31.3931 98.8895C30.9647 98.9602 30.6754 99.3642 30.7477 99.7926Z" fill="#FFB524" class="fill-path"/>
</svg>
