<svg style="height:1em;width:0.8377em" viewBox="0 0 160 191" fill="none" xmlns="http://www.w3.org/2000/svg">
<path d="M101.989 33.3214C99.4666 32.7625 97.1698 32.5157 95.0828 32.5157C91.6549 32.5 88.8007 33.209 86.518 34.168C88.23 28.4172 90.023 20.2643 90.2062 10.915C90.247 8.74468 88.5185 6.95248 86.3482 6.9116C84.1779 6.87309 82.3857 8.59926 82.348 10.7695C82.1806 20.5268 79.9835 28.9093 78.2621 34.0964C77.2756 33.4589 76.1445 32.8647 74.8601 32.3938C73.982 30.6103 72.8462 28.282 71.3771 25.2345C65.5862 13.0585 66.344 4.1054 48.3001 0.212867C47.7389 0.0839546 47.1415 0.212867 46.6817 0.55873C46.2226 0.904593 45.9349 1.44382 45.9011 2.01843C45.8194 3.47341 45.7793 4.86708 45.7793 6.2018C45.5395 21.6438 51.8319 29.8077 62.3815 32.0543C26.6499 39.2128 0.458651 71.7735 0.449219 109.584C0.456293 149.564 29.9254 182.648 68.3272 188.204C68.7768 188.27 69.2162 188.296 69.6462 188.296C69.9575 188.275 70.2593 188.243 70.5572 188.205C70.6264 188.857 71.0163 189.451 71.6333 189.758C72.4846 190.18 73.5112 189.935 74.0795 189.175L75.9401 186.69C76.1618 186.596 76.3756 186.505 76.5799 186.414L77.9579 189.521C78.2833 190.252 79.012 190.712 79.813 190.686C80.6116 190.663 81.3136 190.161 81.5942 189.412L82.7709 186.267L86.43 189.475C87.0769 190.041 88.0162 190.122 88.7488 189.674C89.4083 189.273 89.7605 188.531 89.6756 187.78C90.3209 187.872 90.9922 187.937 91.6887 187.966C92.3607 187.966 93.0603 187.912 93.7725 187.785C130.902 181.149 159.049 148.66 159.059 109.585C159.045 73.6765 135.853 40.8604 101.989 33.3214ZM49.7095 6.20258C49.7095 5.69637 49.7205 5.17286 49.7331 4.64699C63.5716 8.53166 61.4461 13.8925 67.8375 26.9418C68.2792 27.8552 68.6872 28.6986 69.0708 29.4894C67.8351 29.0783 66.4367 28.7387 64.8481 28.5037C54.8267 26.6564 49.9634 21.698 49.7095 6.20258ZM92.3898 180.046C92.1768 180.084 91.9465 180.105 91.6879 180.105C89.4657 180.334 85.4105 177.747 79.7532 177.532C74.2454 177.899 70.7985 180.824 69.6446 180.437C69.5676 180.437 69.5047 180.433 69.4504 180.423C34.894 175.427 8.30031 145.614 8.30974 109.584C8.30109 75.2093 32.3291 45.7355 64.5046 39.6365C65.9958 39.3543 67.2794 39.238 68.383 39.238C72.1804 39.2859 73.8547 40.4218 75.2122 41.5914C75.4881 41.843 75.7349 42.1 75.9731 42.3618C76.2655 43.4434 76.9989 44.3976 78.0931 44.9062C78.1646 44.9392 78.2393 44.9534 78.3116 44.9825C78.8469 45.3684 79.6966 45.7402 81.2019 45.9902C85.8703 45.0807 85.3837 43.5125 87.4998 42.5261C89.1764 41.4397 91.2925 40.4006 95.0828 40.3762C96.5488 40.3762 98.2711 40.5483 100.294 40.9964C129.995 47.4821 151.211 76.9693 151.198 109.584C151.207 144.799 125.804 174.074 92.3898 180.046Z" fill="#FFB524" class="fill-path"/>
<path d="M141.443 107.959C141.008 107.948 140.649 108.293 140.637 108.727C140.536 113.135 139.993 117.471 139.042 121.68C138.947 122.103 139.214 122.524 139.637 122.619C140.061 122.716 140.481 122.449 140.577 122.026C141.547 117.716 142.104 113.278 142.211 108.763C142.219 108.328 141.874 107.968 141.443 107.959Z" fill="#FFB524" class="fill-path"/>
<path d="M136.643 132.059C136.24 131.894 135.781 132.084 135.616 132.486C128.734 149.123 115.233 162.79 97.8073 169.763C97.4048 169.924 97.2075 170.381 97.371 170.784C97.5314 171.187 97.9888 171.384 98.3913 171.223C116.216 164.089 130.024 150.115 137.069 133.087C137.233 132.686 137.043 132.227 136.643 132.059Z" fill="#FFB524" class="fill-path"/>
</svg>
