<svg style="height:1em;width:0.5934em" viewBox="0 0 108 182" fill="none" xmlns="http://www.w3.org/2000/svg">
<path d="M105.103 96.7137C101.394 83.0057 96.2331 61.4561 91.0554 42.7442C88.4614 33.3807 85.8706 24.7271 83.4087 18.0063C80.6795 11.1999 79.2567 6.70996 75.2534 3.85423C71.1533 1.41275 67.2293 0.185725 63.5035 0.188083C52.1929 0.460057 46.5043 10.3415 42.3476 18.5039C37.0174 29.4269 5.19253 76.0327 1.56805 109.673C1.13808 113.795 0.899902 117.989 0.899902 122.179C0.914051 136.667 3.69982 151.216 11.694 162.502C19.6638 173.828 33.128 181.291 52.3054 181.212C52.6834 181.212 53.0639 181.21 53.4483 181.205C91.7384 180.413 107.375 142.939 107.253 114.248C107.251 107.974 106.534 102.011 105.103 96.7137ZM53.3359 173.346C52.9916 173.351 52.6473 173.353 52.3054 173.353C18.4281 173.122 9.22734 149.48 8.75885 122.179C8.75885 118.288 8.98052 114.361 9.38612 110.488C12.4156 80.2215 43.3546 33.8217 49.3805 22.0152C53.3587 13.8874 58.1041 7.77506 63.5035 8.04625C65.4835 8.04625 68.002 8.68845 71.2351 10.6103C71.2468 10.6009 71.2531 10.597 71.5566 11.027C74.476 14.6727 79.7637 30.8111 84.4415 48.3464C89.2475 66.0333 93.9905 85.7294 97.5167 98.7661C98.7343 103.26 99.3954 108.579 99.393 114.248C99.2712 140.965 85.2402 173.115 53.3359 173.346Z" fill="#FFB524" class="fill-path"/>
<path d="M54.761 73.8333C46.3817 73.9214 29.8809 82.8556 25.4546 104.206C24.7841 107.519 24.3188 111.196 24.3164 114.955C24.3188 121.601 25.7777 128.594 30.4201 134.008C35.0625 139.429 42.78 142.922 54.3452 142.901C54.4882 142.901 54.6329 142.901 54.7751 142.901C76.9811 142.803 84.2128 124.942 84.1405 110.918C84.1358 105.91 83.3049 101.275 81.9207 97.7089C76.5433 84.4552 63.4524 74.0919 54.761 73.8333ZM54.7476 138.971C54.614 138.971 54.478 138.971 54.3444 138.971C32.8749 138.728 28.5391 127.183 28.2475 114.955C28.2475 111.525 28.679 108.092 29.3063 104.984C33.1422 85.4842 48.7697 77.6716 54.7618 77.7612C60.4442 77.5034 73.8511 87.3125 78.2592 99.1387C79.425 102.112 80.2149 106.36 80.2102 110.917C80.0286 124.013 74.3423 138.764 54.7476 138.971Z" fill="#FFB524" class="fill-path"/>
<path d="M74.0886 115.022C73.6626 114.932 73.2468 115.206 73.1579 115.628C71.1936 124.972 62.8638 131.84 53.0995 131.838C52.7033 131.838 52.3048 131.826 51.9031 131.804C51.47 131.779 51.0997 132.112 51.0746 132.544C51.0494 132.978 51.3804 133.348 51.8143 133.374C52.2442 133.396 52.6742 133.411 53.0995 133.411C63.6105 133.408 72.5755 126.025 74.697 115.952C74.7859 115.527 74.5139 115.11 74.0886 115.022Z" fill="#FFB524" class="fill-path"/>
<path d="M71.5178 100.762C71.135 100.968 70.9904 101.443 71.1963 101.825C72.6238 104.494 73.4712 107.501 73.5836 110.678C73.5977 111.113 73.9609 111.451 74.3956 111.436C74.8303 111.42 75.1691 111.057 75.1541 110.624C75.0346 107.2 74.1205 103.958 72.5829 101.086C72.3778 100.703 71.8999 100.558 71.5178 100.762Z" fill="#FFB524" class="fill-path"/>
</svg>
